<?xml version="1.0" encoding="UTF-8" standalone="no"?>
<!-- Created with Inkscape (http://www.inkscape.org/) -->

<svg
   xmlns:dc="http://purl.org/dc/elements/1.1/"
   xmlns:cc="http://creativecommons.org/ns#"
   xmlns:rdf="http://www.w3.org/1999/02/22-rdf-syntax-ns#"
   xmlns:svg="http://www.w3.org/2000/svg"
   xmlns="http://www.w3.org/2000/svg"
   xmlns:sodipodi="http://sodipodi.sourceforge.net/DTD/sodipodi-0.dtd"
   xmlns:inkscape="http://www.inkscape.org/namespaces/inkscape"
   id="svg3087"
   version="1.1"
   inkscape:version="0.48.4 r9939"
   width="1463.7147"
   height="1451.4471"
   sodipodi:docname="2-logo-simple-bicolor.svg">
  <metadata
     id="metadata3093">
    <rdf:RDF>
      <cc:Work
         rdf:about="">
        <dc:format>image/svg+xml</dc:format>
        <dc:type
           rdf:resource="http://purl.org/dc/dcmitype/StillImage" />
        <dc:title></dc:title>
        <dc:date>28/03</dc:date>
        <dc:creator>
          <cc:Agent>
            <dc:title>Théotix</dc:title>
          </cc:Agent>
        </dc:creator>
        <dc:rights>
          <cc:Agent>
            <dc:title>CC BY-NC-ND</dc:title>
          </cc:Agent>
        </dc:rights>
      </cc:Work>
    </rdf:RDF>
  </metadata>
  <defs
     id="defs3091">
    <clipPath
       clipPathUnits="userSpaceOnUse"
       id="clipPath4226">
      <path
         sodipodi:type="arc"
         style="fill:#a90000;fill-opacity:1;stroke:none"
         id="path4228"
         sodipodi:cx="946.875"
         sodipodi:cy="769.41455"
         sodipodi:rx="568.75"
         sodipodi:ry="525"
         d="m 1515.625,769.41455 a 568.75,525 0 1 1 -1137.5,0 568.75,525 0 1 1 1137.5,0 z" />
    </clipPath>
  </defs>
  <sodipodi:namedview
     pagecolor="#000000"
     bordercolor="#666666"
     borderopacity="1"
     objecttolerance="10"
     gridtolerance="10"
     guidetolerance="10"
     inkscape:pageopacity="0"
     inkscape:pageshadow="2"
     inkscape:window-width="1280"
     inkscape:window-height="948"
     id="namedview3089"
     showgrid="false"
     showguides="false"
     inkscape:guide-bbox="true"
     fit-margin-top="-0.2"
     fit-margin-left="-437"
     fit-margin-right="0"
     fit-margin-bottom="0"
     inkscape:zoom="0.1767767"
     inkscape:cx="736.08474"
     inkscape:cy="608.15955"
     inkscape:window-x="0"
     inkscape:window-y="29"
     inkscape:window-maximized="1"
     inkscape:current-layer="svg3087"
     inkscape:snap-grids="true"
     borderlayer="false"
     inkscape:showpageshadow="true"
     showborder="true">
    <inkscape:grid
       empspacing="5"
       visible="true"
       enabled="true"
       snapvisiblegridlinesonly="true"
       type="xygrid"
       id="grid4230"
       originx="-3.4201496e-06px"
       originy="-11.293837px" />
    <sodipodi:guide
       orientation="-0.70710678,0.70710678"
       position="937.5,926.20616"
       id="guide4262" />
    <sodipodi:guide
       orientation="0.70710678,0.70710678"
       position="965.625,494.95616"
       id="guide4264" />
    <sodipodi:guide
       orientation="0,1"
       position="735.9375,724.64366"
       id="guide4266" />
    <sodipodi:guide
       orientation="1,0"
       position="735.9375,724.64366"
       id="guide4268" />
  </sodipodi:namedview>
  <path
     style="fill:#132033;fill-opacity:1;stroke:none"
     d="m 699.78327,1174.4555 c 0.62857,-0.2722 1.25451,-0.5464 1.87784,-0.8225 104.72547,-46.3923 135.78156,-148.129 154.16834,-244.3605 1.59374,-7.81242 4.0674,-17.57939 5.49703,-21.70439 1.42963,-4.125 3.25806,-10.33031 4.06317,-13.78958 37.91056,-121.94558 164.21745,-176.87225 246.13635,-140.20236 92.3065,46.44727 58.4053,167.00976 -26.9194,158.0293 -4.2501,-0.80707 -10.343,-3.08854 -13.3747,-5.86517 -0.5988,-0.54844 -1.1322,-1.15861 -1.5401,-1.7266 -5.667,-7.89195 3.5435,-3.11494 14.0591,-4.28996 29.9771,-3.75578 40.0739,-7.43259 49.3019,-31.97032 20.5141,-131.40392 -183.23428,-84.15304 -174.29462,53.81469 -0.77767,21.76488 -0.80357,41.80799 -0.86951,63.49999 0.0808,1.2816 0.78284,1.5335 1.35861,1.8492 l 17.63987,7.6547 c 0.73274,0.2809 1.33792,0.6663 1.41534,1.3529 3.2489,15.5522 2.68536,22.9342 -0.27516,39.438 -0.10972,0.2257 -0.18688,0.3046 -0.63932,0.4201 l -14.07324,3.5773 c -1.47557,0.3408 -1.48582,0.7634 -1.83822,1.8372 -1.36056,7.1998 -1.7794,12.4385 0.43163,19.9045 0.27487,0.7648 0.22302,0.5783 1.10048,0.6352 l 13.35863,0.7476 c 0.78542,0.2972 1.12519,0.309 1.44493,1.0683 0.12814,0.3042 0.20887,1.2621 0.35513,1.64 1.85251,13.3601 3.90521,28.5698 -0.92415,40.99 -0.72264,1.6874 -0.81591,1.455 -2.20965,1.7614 l -12.01967,1.5365 c -0.53611,0.068 -1.19663,0.1 -1.21097,0.3845 -3.19441,9.8855 -6.28222,20.1577 -10.90634,29.523 -0.36773,0.5784 -0.007,0.935 0.54573,1.6133 l 9.46071,11.6264 c 0.17854,0.2899 0.18251,0.2999 0.13028,0.6075 -3.1123,14.2508 -11.91736,27.6391 -20.3814,36.8164 -0.57629,0.6004 -0.72374,0.5821 -1.49367,0.5354 l -6.60798,-0.5988 -6.91453,-0.6265 c -0.57826,-0.062 -0.71332,0.1805 -0.83981,0.3907 l -2.7853,5.4345 c -1.65769,3.2344 -5.06884,8.3525 -7.58035,11.3736 -1.75733,2.3097 -3.55107,5.0197 -4.75907,7.6123 -0.19024,0.6116 0.004,0.872 0.30631,1.2926 2.17968,4.2322 6.99541,6.7475 9.05393,10.068 1.02328,1.8925 0.5377,0.8747 0.26008,2.3535 -5.14752,10.2828 -19.10845,29.3193 -31.14184,34.7936 -1.95971,0.8915 -2.64082,0.8457 -3.74713,0.5898 l -11.0328,-5.521 c -0.49005,-0.2061 -1.28574,-0.8062 -2.14408,0.2267 -2.80531,3.789 -5.49932,6.1324 -9.50566,9.3258 -0.97482,0.9069 -1.04801,1.6647 -0.28681,3.1492 z M 404.86391,738.07982 c 5.9563,1.34811 12.18069,2.41274 18.58213,3.1811 45.45801,5.45629 99.84402,-4.02764 130.55369,-33.03552 54.60238,-57.88322 43.34026,-102.62239 55.71914,-151.20972 0.30547,-1.56865 1.18296,-3.87232 1.0882,-5.02092 -0.0963,-1.16684 -0.59474,-1.8764 -1.21537,-2.46824 l -12.00712,-14.64973 c -0.92583,-1.08837 -2.23457,-2.68058 -1.49893,-4.54398 7.62146,-20.48141 16.49631,-31.90883 26.32256,-41.82492 2.32826,-2.34614 1.36466,-2.06665 7.66615,-0.84555 7.05199,1.36653 11.62639,3.3091 14.67151,3.36005 1.47432,0.003 1.65636,-0.0572 2.52833,-0.89722 3.80794,-4.28711 11.86248,-10.34873 12.58971,-16.24837 0,-0.75115 -1.35,-4.04006 -3,-7.30869 -1.65,-3.26864 -2.61249,-5.68265 -2.57097,-6.66083 0.0689,-1.62329 11.34079,-11.9897 24.84594,-21.23194 l 4.95764,-3.39276 4.1337,2.16665 c 2.27353,1.19165 5.66274,3.28089 7.53157,4.64275 4.31216,3.14237 7.08854,2.86975 11.28721,-0.0262 7.01546,-4.55205 12.92023,-7.50521 19.50229,-11.02329 1.60735,-0.88199 2.69311,-1.94008 3.20125,-3.84622 l 0.21959,-14.08933 c 0.0577,-0.43774 0.20558,-0.62759 0.77654,-0.95383 11.50715,-7.14213 27.73822,-10.25764 38.95409,-10.58028 0.30868,-0.0237 0.46501,0.10648 0.55317,0.23131 l 6.99698,11.81435 c 0.5678,0.86208 2.04527,0.8485 2.97693,0.95567 8.39747,0.9217 17.12249,0.40188 23.94166,-0.82341 3.33953,-0.75901 2.98043,-1.0574 3.6149,-2.16269 l 4.35958,-10.1646 c 0.51556,-0.59729 0.15316,-0.58735 1.72827,-0.74116 20.05464,-1.40313 26.8928,-5.1e-4 39.83809,9.2183 2.16275,2.58315 1.98975,1.76948 1.57249,4.08089 l -1.6945,10.02679 c 0.10045,2.09739 1.36369,2.72601 2.7692,3.75144 6.40676,4.6742 20.63102,15.39153 24.07544,14.7972 0.71403,-0.12321 1.35739,-0.0267 1.88963,-0.2353 l 11.89853,-7.05229 c 0.75898,-0.33952 0.82764,-0.31902 1.36313,-0.11456 10.04116,5.43511 19.42588,14.14516 24.6873,23.10036 0.54573,0.92288 0.47552,0.93628 0.14633,1.68366 l -6.87713,11.05377 c -0.33634,0.40689 -1.07372,0.97326 -0.46157,1.80362 2.28029,3.84441 8.0724,11.47577 11.27629,13.8165 0.72465,0.66105 0.78071,0.35758 1.32096,0.25625 l 8.3586,-3.46232 c 1.13688,-0.49325 1.21355,-0.60054 2.58475,0.69033 12.52039,12.57557 16.78889,32.0913 17.32965,44.55115 0.0679,0.45838 0.0234,0.50636 -0.53523,0.77249 l -8.23835,4.20839 c -0.37287,0.14956 -0.64266,0.45279 -0.74612,1.30527 -0.17604,1.45066 0.24277,5.03881 0.80767,9.03805 0.71945,3.24919 1.26265,7.81201 2.9388,10.54392 0.29367,0.47864 0.39289,0.56813 0.79254,0.56457 l 8.54025,-0.75363 c 1.28508,-0.12168 1.13665,-0.27157 1.64833,0.90208 3.79905,11.08096 2.91155,24.07909 0.29827,35.70663 -0.251,0.96507 0.0794,0.7764 -1.42021,0.79241 l -7.7345,0.37816 c -1.56206,-0.002 -1.68276,0.43948 -1.96762,1.30351 -0.89191,2.72041 -2.49649,7.85592 -4.34289,14.65814 -1.64222,6.05 -5.11018,17.75 -7.70659,26 -12.16493,38.65355 -14.42188,47.79739 -14.42188,58.42897 1.32756,20.30239 8.34568,23.36091 26.34467,23.53665 10.06522,0.60163 10.19117,1.31056 4.78771,9.27885 -18.20632,20.51486 -53.36988,19.21828 -68.98739,6.07497 -13.96116,-13.7634 -18.89504,-47.67768 -10.02035,-108.81945 21.95506,-151.47683 -151.22152,-135.35414 -153.2666,-24.5 -6.79266,179.35822 -105.34147,291.22173 -231.03424,339.7788 -1.4441,0.55788 -2.8918,1.1074 -4.34297,1.64858 z"
     id="path3101"
     inkscape:connector-curvature="0"
     sodipodi:nodetypes="cscscccssccccccccccccccscccsccccccccccscccccscccccccsccsccccccccssscssccccccccccccccccssccccccccccccccscscccccccssccccccscc"
     clip-path="url(#clipPath4226)"
     transform="translate(-311.52704,41.612464)" />
  <path
     sodipodi:type="star"
     style="fill:#ff0000;fill-opacity:0;stroke:none"
     id="path4190"
     sodipodi:sides="5"
     sodipodi:cx="29.831066"
     sodipodi:cy="517.85339"
     sodipodi:r1="156.37495"
     sodipodi:r2="78.187477"
     sodipodi:arg1="0.74541948"
     sodipodi:arg2="1.373738"
     inkscape:flatsided="false"
     inkscape:rounded="0"
     inkscape:randomized="0"
     d="M 144.73592,623.91941 45.139036,594.52769 -35.536161,659.91061 -38.3601,556.1058 -125.47296,499.58356 -27.621362,464.82038 -0.78487141,364.5048 62.514679,446.82479 166.2134,441.34859 107.48308,526.98831 z"
     inkscape:transform-center-x="9.460845"
     inkscape:transform-center-y="-5.6456889"
     transform="translate(-311.52704,41.612464)" />
  <path
     transform="translate(-311.52704,41.612464)"
     clip-path="url(#clipPath4226)"
     sodipodi:nodetypes="cssscccccsccccccccssscssccccccccccccccccssccccccccccccccscscccccccsscccccsscssc"
     inkscape:connector-curvature="0"
     id="path3062"
     d="m 257.93115,734.13338 c 7.90698,-90.42463 -163.58347,-172.42777 -163.301,-175.31527 0.39313,-4.01878 0.9029,-5.25 2.17367,-5.25 0.91305,0 2.15178,-0.4917 2.75274,-1.09264 1.67977,-1.67978 4.47203,0.24106 16.75884,11.52871 61.87708,55.35194 139.74768,106.0208 206.06063,141.55006 29.86168,15.48551 56.52011,25.99713 82.48788,32.52558 48.25325,10.92129 114.10158,3.23838 149.13582,-29.85442 54.60238,-57.88322 43.34026,-102.62239 55.71914,-151.20972 0.30547,-1.56865 1.18296,-3.87232 1.0882,-5.02092 -0.0963,-1.16684 -0.59474,-1.8764 -1.21537,-2.46824 l -12.00712,-14.64973 c -0.92583,-1.08837 -2.23457,-2.68058 -1.49893,-4.54398 7.62146,-20.48141 16.49631,-31.90883 26.32256,-41.82492 2.32826,-2.34614 1.36466,-2.06665 7.66615,-0.84555 7.05199,1.36653 11.62639,3.3091 14.67151,3.36005 1.47432,0.003 1.65636,-0.0572 2.52833,-0.89722 3.80794,-4.28711 11.86248,-10.34873 12.58971,-16.24837 0,-0.75115 -1.35,-4.04006 -3,-7.30869 -1.65,-3.26864 -2.61249,-5.68265 -2.57097,-6.66083 0.0689,-1.62329 11.34079,-11.9897 24.84594,-21.23194 l 4.95764,-3.39276 4.1337,2.16665 c 2.27353,1.19165 5.66274,3.28089 7.53157,4.64275 4.31216,3.14237 7.08854,2.86975 11.28721,-0.0262 7.01546,-4.55205 12.92023,-7.50521 19.50229,-11.02329 1.60735,-0.88199 2.69311,-1.94008 3.20125,-3.84622 l 0.21959,-14.08933 c 0.0577,-0.43774 0.20558,-0.62759 0.77654,-0.95383 11.50715,-7.14213 27.73822,-10.25764 38.95409,-10.58028 0.30868,-0.0237 0.46501,0.10648 0.55317,0.23131 l 6.99698,11.81435 c 0.5678,0.86208 2.04527,0.8485 2.97693,0.95567 8.39747,0.9217 17.12249,0.40188 23.94166,-0.82341 3.33953,-0.75901 2.98043,-1.0574 3.6149,-2.16269 l 4.35958,-10.1646 c 0.51556,-0.59729 0.15316,-0.58735 1.72827,-0.74116 20.05464,-1.40313 26.8928,-5.1e-4 39.83809,9.2183 2.16275,2.58315 1.98975,1.76948 1.57249,4.08089 l -1.6945,10.02679 c 0.10045,2.09739 1.36369,2.72601 2.7692,3.75144 6.40676,4.6742 20.63102,15.39153 24.07544,14.7972 0.71403,-0.12321 1.35739,-0.0267 1.88963,-0.2353 l 11.89853,-7.05229 c 0.75898,-0.33952 0.82764,-0.31902 1.36313,-0.11456 10.04116,5.43511 19.42588,14.14516 24.6873,23.10036 0.54573,0.92288 0.47552,0.93628 0.14633,1.68366 l -6.87713,11.05377 c -0.33634,0.40689 -1.07372,0.97326 -0.46157,1.80362 2.28029,3.84441 8.0724,11.47577 11.27629,13.8165 0.72465,0.66105 0.78071,0.35758 1.32096,0.25625 l 8.3586,-3.46232 c 1.13688,-0.49325 1.21355,-0.60054 2.58475,0.69033 12.52039,12.57557 16.78889,32.0913 17.32965,44.55115 0.0679,0.45838 0.0234,0.50636 -0.53523,0.77249 l -8.23835,4.20839 c -0.37287,0.14956 -0.64266,0.45279 -0.74612,1.30527 -0.17604,1.45066 0.24277,5.03881 0.80767,9.03805 0.71945,3.24919 1.26265,7.81201 2.9388,10.54392 0.29367,0.47864 0.39289,0.56813 0.79254,0.56457 l 8.54025,-0.75363 c 1.28508,-0.12168 1.13665,-0.27157 1.64833,0.90208 3.79905,11.08096 2.91155,24.07909 0.29827,35.70663 -0.251,0.96507 0.0794,0.7764 -1.42021,0.79241 l -7.7345,0.37816 c -1.56206,-0.002 -1.68276,0.43948 -1.96762,1.30351 -0.89191,2.72041 -2.49649,7.85592 -4.34289,14.65814 -1.64222,6.05 -5.11018,17.75 -7.70659,26 -12.16493,38.65355 -14.42188,47.79739 -14.42188,58.42897 1.32756,20.30239 8.34568,23.36091 26.34467,23.53665 10.06522,0.60163 10.19117,1.31056 4.78771,9.27885 -19.73665,4.42387 -33.81443,-1.99403 -40.36607,-15.71792 -12.01662,-38.51214 9.75929,-61.24013 18.63398,-122.3819 7.15644,-58.0091 -24.03277,-110.47123 -67.23705,-135.08435 -42.97952,-24.48507 -96.39102,-18.09088 -130.81229,-4.25975 -43.20081,17.35892 -100.70152,61.14518 -106.0479,131.90601 -9.00677,84.84295 -22.25347,111.81413 -56.15576,143.82814 -55.46148,52.37239 -127.29373,73.51166 -193.53024,62.83776 -46.34905,-7.46906 -87.01244,-48.53991 -119.54981,-52.30716 z"
     style="fill:#0b3f67;fill-opacity:1;stroke:none" />
  <path
     transform="translate(-311.52704,41.612464)"
     clip-path="url(#clipPath4226)"
     sodipodi:nodetypes="ccsscccssccccccccccccccscccsccccccccccscccccscccsccccc"
     inkscape:connector-curvature="0"
     id="path3102"
     d="m 813.96054,1270.6013 c 77.03759,-71.9184 105.317,-120.4399 115.04097,-164.8071 8.72334,-50.7114 2.91052,-106.63895 3.26878,-159.13976 0.38619,-56.59339 10.42786,-107.67624 44.39118,-140.29431 18.88206,-18.13416 49.92933,-38.12207 90.05363,-40.11702 59.8143,-1.15247 107.7309,45.80875 79.4835,114.3585 -9.6637,19.49023 -28.1693,34.91548 -61.592,31.00386 -4.2501,-0.80707 -10.343,-3.08854 -13.3747,-5.86517 -0.5988,-0.54844 -1.1322,-1.15861 -1.5401,-1.7266 -5.667,-7.89195 3.5435,-3.11494 14.0591,-4.28996 29.9771,-3.75578 40.0739,-7.43259 49.3019,-31.97032 20.5141,-131.40392 -183.23428,-84.15304 -174.29462,53.81469 -0.77767,21.76488 -0.80357,41.80799 -0.86951,63.49999 0.0808,1.2816 0.78284,1.5335 1.35861,1.8492 l 17.63987,7.6547 c 0.73274,0.2809 1.33792,0.6663 1.41534,1.3529 3.2489,15.5522 2.68536,22.9342 -0.27516,39.438 -0.10972,0.2257 -0.18688,0.3046 -0.63932,0.4201 l -14.07324,3.5773 c -1.47557,0.3408 -1.48582,0.7634 -1.83822,1.8372 -1.36056,7.1998 -1.7794,12.4385 0.43163,19.9045 0.27487,0.7648 0.22302,0.5783 1.10048,0.6352 l 13.35863,0.7476 c 0.78542,0.2972 1.12519,0.309 1.44493,1.0683 0.12814,0.3042 0.20887,1.2621 0.35513,1.64 1.85251,13.3601 3.90521,28.5698 -0.92415,40.99 -0.72264,1.6874 -0.81591,1.455 -2.20965,1.7614 l -12.01967,1.5365 c -0.53611,0.068 -1.19663,0.1 -1.21097,0.3845 -3.19441,9.8855 -6.28222,20.1577 -10.90634,29.523 -0.36773,0.5784 -0.007,0.935 0.54573,1.6133 l 9.46071,11.6264 c 0.17854,0.2899 0.18251,0.2999 0.13028,0.6075 -3.1123,14.2508 -11.91736,27.6391 -20.3814,36.8164 -0.57629,0.6004 -0.72374,0.5821 -1.49367,0.5354 l -6.60798,-0.5988 -6.91453,-0.6265 c -0.57826,-0.062 -0.71332,0.1805 -0.83981,0.3907 l -2.7853,5.4345 c -1.65769,3.2344 -5.06884,8.3525 -7.58035,11.3736 -1.75733,2.3097 -3.55107,5.0197 -4.75907,7.6123 -0.19024,0.6116 0.004,0.872 0.30631,1.2926 2.17968,4.2322 6.99541,6.7475 9.05393,10.068 1.02328,1.8925 0.5377,0.8747 0.26008,2.3535 -5.14752,10.2828 -19.10845,29.3193 -31.14184,34.7936 -1.95971,0.8915 -2.64082,0.8457 -3.74713,0.5898 l -11.0328,-5.521 c -0.49005,-0.2061 -1.28574,-0.8062 -2.14408,0.2267 -0.58075,0.7844 -1.15672,1.5068 -1.74056,2.1877 -2.2364,2.608 -4.58814,4.6058 -7.7651,7.1381 -0.97482,0.9069 -1.04801,1.6647 -0.28681,3.1492 l 6.30343,18.0052 c 0.19801,1.1127 -0.18342,0.9863 -0.43736,1.315 -48.76377,6.4195 -87.4632,-10.9021 -53.33871,-19.1704 z"
     style="fill:#0b3f67;fill-opacity:1;stroke:none" />
  <path
     style="fill:#0b3f67;fill-opacity:1;stroke:none"
     d="m 817.375,368.94966 c -43.93163,101.64574 -89.17005,203.2099 -131.4375,305.28125 121.9324,67.60255 243.90698,136.00083 366.3107,203.0839 12.1146,6.62933 24.2302,13.25691 36.3456,19.88485 62.7279,-144.553 123.8971,-289.80573 185,-435.03125 1.8292,-1.42905 2.1935,-4.02523 -0.6563,-4.09375 -149.048,-35.96562 -298.19883,-72.31241 -447.34375,-108.1875 -2.73958,6.35417 -5.47917,12.70833 -8.21875,19.0625 z"
     id="path3124"
     inkscape:connector-curvature="0" />
  <g
     id="g4358"
     clip-path="none"
     mask="none"
     style="fill:#132033;fill-opacity:1"
     transform="translate(-3.4201496e-6,-11.269094)">
    <g
       id="g4592"
       style="fill:#132033;fill-opacity:1">
      <g
         id="g4602"
         style="fill:#132033;fill-opacity:1">
        <path
           sodipodi:type="inkscape:offset"
           inkscape:radius="-9.2374268"
           inkscape:original="M 722.4375 1.96875 C 661.41431 3.2027138 600.55547 11.990958 541.78125 28.40625 C 388.76423 70.490124 250.8733 164.2821 154.625 290.09375 C 68.760495 401.52799 16.003018 537.4937 5.09375 677.8125 C -6.9051504 823.15819 25.658371 971.72077 98.09375 1098.5312 C 181.07813 1245.3441 315.61274 1361.8657 472.8125 1422.5312 C 624.12114 1481.6548 796.12507 1488.0164 951.78125 1440.1875 C 1104.8807 1393.803 1241.2994 1295.4377 1334.4688 1165.625 C 1417.2591 1051.2242 1465.807 912.81865 1472.0938 771.6875 C 1478.2005 646.08644 1451.3832 518.9453 1394.3125 406.59375 C 1315.9924 250.81257 1180.81 124.95052 1019.8438 58.15625 C 926.26818 18.815511 824.14282 -0.087856367 722.4375 1.96875 z M 745.625 147.84375 C 837.15439 149.09664 928.37079 171.2287 1009.5938 213.6875 C 1118.8057 270.14915 1209.1143 361.52562 1264.2812 471.5 C 1336.1043 613.01875 1346.533 783.77684 1293.6875 933.03125 C 1246.4715 1069.0113 1147.0401 1185.7005 1020.4062 1254.3438 C 896.67851 1322.3948 748.27213 1342.637 610.6875 1312.375 C 479.61704 1284.1338 359.46835 1208.989 276.25 1103.7812 C 196.94633 1004.5997 151.62237 879.01551 148.90625 752.15625 C 145.22682 624.66915 184.15107 496.4749 258.90625 393.03125 C 336.72677 284.02859 453.05474 202.98526 582.59375 168.28125 C 635.66245 153.85208 690.70737 147.09201 745.625 147.84375 z "
           style="fill:#132033;fill-opacity:1;stroke:none"
           id="path3859"
           d="M 722.625,11.21875 C 662.36403,12.437301 602.28697,21.111847 544.28125,37.3125 a 9.2383505,9.2383505 0 0 1 -0.0625,0 c -151.00151,41.529555 -287.24254,134.21657 -382.25,258.40625 a 9.2383505,9.2383505 0 0 1 -0.0312,0 C 77.173764,405.72442 25.079118,540.04727 14.3125,678.53125 a 9.2383505,9.2383505 0 0 1 0,0.0312 c -11.8436898,143.46558 20.326902,290.22732 91.8125,415.375 a 9.2383505,9.2383505 0 0 1 0,0.062 c 81.91015,144.9124 214.85528,260.0338 370,319.9062 a 9.2383505,9.2383505 0 0 1 0.0625,0.031 c 149.30748,58.3417 319.26499,64.6064 472.875,17.4063 a 9.2383505,9.2383505 0 0 1 0.0312,0 C 1100.1822,1385.5685 1235.001,1288.3884 1326.9688,1160.25 a 9.2383505,9.2383505 0 0 1 0.031,-0.031 c 81.7213,-112.9236 129.6703,-249.65028 135.875,-388.93755 a 9.2383505,9.2383505 0 0 1 0,-0.0312 c 6.0283,-123.98883 -20.487,-249.58425 -76.8125,-360.46875 a 9.2383505,9.2383505 0 0 1 0,-0.0312 c -77.3009,-153.75398 -210.887,-278.14096 -369.75,-344.0625 a 9.2383505,9.2383505 0 0 1 -0.062,-0.03125 C 923.91334,27.83639 823.06145,9.1878017 722.625,11.21875 z m 23.125,127.375 c 92.92011,1.27193 185.53176,23.72406 268.0938,66.875 0.012,0.006 0.019,0.0248 0.031,0.0312 110.9531,57.3721 202.6025,150.08343 258.6562,261.8125 0,0.008 -0,0.023 0,0.0312 72.9964,143.84836 83.5624,317.03659 29.875,468.71875 -0.01,0.0187 0.01,0.0438 0,0.0625 l -0.031,0 c -48.0015,138.1877 -148.8608,256.5529 -277.5312,326.3125 -0.012,0.01 -0.019,0.024 -0.031,0.031 -125.76649,69.1601 -276.29486,89.6719 -416.0625,58.9374 -0.01,-0 -0.0213,0 -0.0312,0 -133.1987,-28.7071 -255.12097,-104.9574 -339.6875,-211.8437 -0.0141,-0.018 -0.0172,-0.045 -0.0312,-0.062 C 188.41982,1008.6972 142.41616,881.24841 139.65625,752.34375 l 0.0312,0 c -3.71663,-129.49807 35.73678,-259.57264 111.6875,-364.6875 0.008,-0.0119 0.0228,-0.0194 0.0312,-0.0312 79.07845,-110.74683 197.11474,-192.96738 328.75,-228.25 0.022,-0.006 0.0405,-0.0253 0.0625,-0.0312 53.90403,-14.64951 109.79402,-21.51296 165.53125,-20.75 z" />
      </g>
    </g>
  </g>
  <path
     style="fill:#132033;fill-opacity:1;stroke:none"
     d="m 817.1875,325.16841 c -2.21909,0 -4.67901,0.64784 -5.46875,1.4375 -0.78964,0.78967 -35.60644,80.2752 -77.375,176.65625 -41.76867,96.38105 -76.35655,175.53203 -76.84375,175.875 -0.15642,0.11011 -11.3268,4.35386 -26.09375,9.9375 -4.65579,17.04366 -13.85022,34.07655 -9.78125,51.96875 0.91858,7.64115 10.20791,6.53046 15.8125,6.53125 8.24018,-1.18482 18.01136,4.43857 17.5625,13.5625 -3.45593,14.33666 -17.16962,23.60173 -30.40625,28.15625 -21.46832,6.86126 -49.01959,4.10364 -63.75,-14.5625 -10.00118,-16.14933 -12.76109,-35.33148 -12.90625,-54.25 -20.73355,7.78956 -39.45805,14.81689 -64.53125,24.21875 -38.8001,14.54913 -67.45106,25.30484 -90.9375,34.15625 -0.70885,1.88231 -1.44591,3.75319 -2.1875,5.625 -8.99117,23.66444 -20.69624,46.10585 -34.6875,67 29.71681,20.99468 74.49538,52.29124 139.53125,97.59375 13.4506,9.36938 25.60764,17.81321 38.0625,26.46875 2.70803,-12.0193 5.57524,-23.99672 9,-35.8125 -12.61551,-8.66969 -26.31564,-18.06556 -29.875,-20.5 -5.67205,-3.8794 -10.98718,-7.66822 -11.78125,-8.40625 -1.59762,-1.48491 -2.02624,-1.30003 44.875,-18.84375 7.30774,-2.7335 13.28088,-4.99753 19.5,-7.34375 36.33731,-63.06029 103.81452,-108.81802 177.53125,-110.65625 36.00378,-1.00202 73.98139,11.6202 98.03125,39.15625 24.95411,27.97741 32.78753,71.67272 14.9375,105.46875 -14.46967,29.55384 -47.61834,48.49571 -80.5625,44.8125 -11.30864,-1.18685 -24.91468,-6.56226 -27.90625,-18.65625 -1.90296,-7.31906 4.52291,-14.10538 11.8125,-13.8125 15.02979,0.46978 31.81468,0.54418 44.1875,-9.21875 11.72789,-12.14442 11.97836,-31.0813 8.03125,-46.5625 C 807.77648,856.46143 790.19756,843.85832 772,842.07466 c -46.95097,-3.14879 -91.49901,29.4396 -108,72.5 4.31885,2.41107 8.84746,4.94253 12.21875,6.8125 14.03079,7.78253 26.13355,14.72356 26.90625,15.4375 1.11237,1.0277 -0.90262,2.18172 -9.75,5.4375 -4.20074,1.54587 -20.78219,7.69937 -36.3125,13.46875 -1.0731,21.8548 0.15925,43.9536 -0.65625,65.78119 5.44182,2.2351 11.19109,4.0377 16.0625,7.4688 8.67384,12.7796 7.03059,29.4731 4.8125,44.0312 0.0556,0.6651 0.0419,1.333 0,1.9688 3.08663,2.0661 5.39839,3.5625 5.53125,3.5625 3.33407,0 413.3757,-149.6289 416.625,-152.03124 2.6581,-1.96518 8.5317,-14.98504 35.9687,-79.59375 18.0387,-42.47695 63.5769,-149.67301 101.1876,-238.21875 49.6814,-116.9643 68.1809,-161.68923 67.7187,-163.53125 -0.35,-1.39448 -1.4864,-2.84911 -2.5313,-3.25 -5.6985,-2.18685 -481.21545,-116.75 -484.5937,-116.75 z M 819,336.35591 c 2.00154,0.01 17.06853,3.57659 83,19.59375 41.55645,10.09559 287.6591,69.76663 339.7812,82.375 27.166,6.57146 49.5379,12.05879 49.7188,12.21875 0.1807,0.15996 -43.6986,104.05079 -97.5312,230.84375 -53.8326,126.79295 -98.2127,231.147 -98.625,231.90625 -0.6795,1.25027 -168.43267,-91.22883 -352.9063,-194.5625 -25.37485,-14.21383 -51.8596,-29.05319 -58.875,-32.96875 -7.0154,-3.91557 -12.78125,-7.51083 -12.78125,-7.96875 0,-0.9678 147.25965,-340.63458 148,-341.375 0.0284,-0.0284 0.0853,-0.0632 0.21875,-0.0625 z"
     id="path3256"
     inkscape:connector-curvature="0" />
</svg>
